#N canvas 175 443 588 386 10;
#X obj 180 202 div 1;
#X floatatom 180 230 5 0 0 0 - - -, f 5;
#X obj 20 160 div 1;
#X floatatom 20 190 5 0 0 0 - - -, f 5;
#X obj 293 362 outlet;
#X obj 120 80 moses 0.5;
#X obj 20 218 expr (1 / $f1);
#X obj 120 26 inlet;
#X obj 262 45 inlet;
#X text 312 44 bpm;
#X text 167 25 knob;
#X obj 293 239 r midi-clock-present;
#X obj 240 323 spigot 0;
#X obj 180 280 * 120;
#X obj 394 293 ==;
#X obj 342 318 spigot 1;
#X obj 362 361 outlet;
#X obj 234 279 * 1;
#X obj 20 120 expr (1 - $f1) * 6 - 2;
#X obj 180 138 * 6;
#X obj 180 168 - 2;
#X connect 0 0 1 0;
#X connect 1 0 13 0;
#X connect 1 0 17 1;
#X connect 2 0 3 0;
#X connect 3 0 6 0;
#X connect 5 0 18 0;
#X connect 5 1 19 0;
#X connect 6 0 13 0;
#X connect 6 0 17 1;
#X connect 7 0 5 0;
#X connect 8 0 13 1;
#X connect 8 0 15 0;
#X connect 8 0 17 0;
#X connect 11 0 12 1;
#X connect 11 0 14 0;
#X connect 12 0 4 0;
#X connect 12 0 16 0;
#X connect 13 0 12 0;
#X connect 14 0 15 1;
#X connect 15 0 4 0;
#X connect 17 0 12 0;
#X connect 18 0 2 0;
#X connect 19 0 20 0;
#X connect 20 0 0 0;
