#N canvas 6 50 1360 716 10;
#X obj 159 238 outlet;
#X obj 106 206 route -1;
#X obj 145 12 inlet;
#X obj 145 56 t b f;
#X obj 73 126 list split;
#X obj 106 159 list split 1;
#X msg 73 88 0 1 2 3 -1 4 5 6 7 -1 -1 -1 8 9 10 11 -1 12 13 14 15 16
-1 -1, f 61;
#X connect 1 1 0 0;
#X connect 2 0 3 0;
#X connect 3 0 6 0;
#X connect 3 1 4 1;
#X connect 4 1 5 0;
#X connect 5 0 1 0;
#X connect 6 0 4 0;
