#N canvas 255 208 1360 780 10;
#X obj 329 98 route;
#X obj 361 47 f \$1;
#X obj 361 24 loadbang;
#X obj 329 152 route 0 1 2 3 4 5 6 7;
#X msg 329 125 \$1 \$2;
#X obj 197 278 *~;
#X obj 74 269 *~;
#X obj 90 207 sig~ 1;
#X obj 90 229 -~;
#X obj 300 201 lop~ 1;
#X obj 131 323 +~;
#X obj 73 125 delread~ signalL;
#X obj 196 125 delread~ signalR;
#X obj 176 38 r delay-per-tap;
#X obj 176 91 *;
#X obj 383 765 throw~ outR;
#X obj 77 763 throw~ outL;
#X obj 492 74 r tap-on-off;
#X obj 492 100 unpack f f;
#X obj 492 126 swap, f 10;
#X obj 492 179 spigot \$1, f 10;
#X obj 559 153 == \$1;
#X obj 492 230 tgl 15 0 empty empty empty 17 7 0 10 -262144 -1 -1 1
1;
#X obj 193 684 *~, f 12;
#X obj 273 660 lop~ 1;
#X floatatom 492 274 5 0 0 0 - - -, f 5;
#X obj 241 279 v2freq;
#X obj 261 551 v2freq;
#X obj 261 396 overdrive;
#X obj 151 426 sig~ 1;
#X obj 151 456 -~;
#X obj 366 428 lop~ 1;
#X obj 197 278 *~;
#X obj 74 269 *~;
#X obj 131 323 +~;
#X obj 260 528 *~;
#X obj 132 523 *~;
#X obj 194 577 +~;
#X text 545 24 params: 0:Input L/R 1:Output L/R 2:Level 3:Feedback
Global 4:HiP 5:LoP 6:Zerr 7:Feedback Local;
#X obj 329 3 r changed-tap-parameter;
#X obj 205 426 lop~ 1;
#X obj 241 301 pack 0 20;
#X obj 379 327 sqrt;
#X obj 261 593 line~;
#X obj 194 660 +~;
#X obj 194 635 vcf~ 1;
#X obj 261 571 pack 0 20;
#X obj 131 363 hip~;
#X obj 241 323 line;
#X obj 366 376 * 0.4;
#X connect 0 0 4 0;
#X connect 1 0 14 1;
#X connect 1 0 0 1;
#X connect 2 0 1 0;
#X connect 3 0 9 0;
#X connect 3 0 25 0;
#X connect 3 4 26 0;
#X connect 3 4 28 3;
#X connect 3 5 27 0;
#X connect 3 5 28 1;
#X connect 3 6 28 2;
#X connect 3 6 40 0;
#X connect 3 6 42 0;
#X connect 4 0 3 0;
#X connect 5 0 10 1;
#X connect 6 0 10 0;
#X connect 7 0 8 0;
#X connect 8 0 6 1;
#X connect 9 0 5 1;
#X connect 9 0 8 1;
#X connect 10 0 47 0;
#X connect 11 0 6 0;
#X connect 12 0 5 0;
#X connect 13 0 14 0;
#X connect 14 0 11 0;
#X connect 14 0 12 0;
#X connect 17 0 18 0;
#X connect 18 0 19 0;
#X connect 18 1 19 1;
#X connect 19 0 20 0;
#X connect 19 1 21 0;
#X connect 20 0 22 0;
#X connect 20 0 24 0;
#X connect 21 0 20 1;
#X connect 22 0 25 0;
#X connect 23 0 15 0;
#X connect 23 0 16 0;
#X connect 24 0 23 1;
#X connect 26 0 41 0;
#X connect 27 0 46 0;
#X connect 28 0 35 0;
#X connect 29 0 30 0;
#X connect 30 0 36 1;
#X connect 31 0 35 1;
#X connect 32 0 34 1;
#X connect 33 0 34 0;
#X connect 35 0 37 1;
#X connect 36 0 37 0;
#X connect 37 0 45 0;
#X connect 39 0 0 0;
#X connect 40 0 30 1;
#X connect 41 0 48 0;
#X connect 42 0 49 0;
#X connect 43 0 45 1;
#X connect 44 0 23 0;
#X connect 45 0 44 0;
#X connect 45 1 44 1;
#X connect 46 0 43 0;
#X connect 47 0 36 0;
#X connect 47 0 28 0;
#X connect 48 0 47 1;
#X connect 49 0 31 0;
