#N canvas 3 49 1360 716 10;
#X obj 329 3 r changed-parameter;
#X obj 361 69 + 1;
#X obj 329 98 route;
#X obj 361 47 f \$1;
#X obj 361 24 loadbang;
#X obj 329 152 route 0 1 2 3 4 5 6 7;
#X msg 329 125 \$1 \$2;
#X obj 197 278 *~;
#X obj 74 269 *~;
#X obj 90 207 sig~ 1;
#X obj 90 229 -~;
#X obj 300 201 lop~ 1;
#X obj 131 323 +~;
#X obj 73 125 delread~ signalL;
#X obj 196 125 delread~ signalR;
#X obj 176 38 r delay-per-tap;
#X obj 176 91 *;
#X obj 178 475 throw~ outR;
#X obj 67 471 throw~ outL;
#X obj 132 374 lop~ 20000;
#X obj 131 349 hip~ 20;
#X obj 257 302 osc~ 440;
#X text 545 24 params: 0 Input L/R 1 Output L/R 2 Level 3 Feedback
Global 4 HiP 5 LoP 6 Zerr 7 Feedback Local;
#X connect 0 0 2 0;
#X connect 1 0 2 1;
#X connect 2 0 6 0;
#X connect 3 0 1 0;
#X connect 3 0 16 1;
#X connect 4 0 3 0;
#X connect 5 0 11 0;
#X connect 5 4 20 1;
#X connect 5 5 19 1;
#X connect 6 0 5 0;
#X connect 7 0 12 1;
#X connect 8 0 12 0;
#X connect 9 0 10 0;
#X connect 10 0 8 1;
#X connect 11 0 7 1;
#X connect 11 0 10 1;
#X connect 12 0 20 0;
#X connect 13 0 8 0;
#X connect 14 0 7 0;
#X connect 15 0 16 0;
#X connect 16 0 13 0;
#X connect 16 0 14 0;
#X connect 19 0 18 0;
#X connect 19 0 17 0;
#X connect 20 0 19 0;
