#N canvas 471 302 611 758 10;
#X obj 193 41 inlet;
#X text 28 495 preset;
#X text 121 495 button;
#X text 230 495 page;
#X text 332 495 index (0 \, 1 \, 2 \, 3);
#X obj 35 472 outlet;
#X obj 127 472 outlet;
#X obj 232 472 outlet;
#X obj 333 472 outlet;
#X obj 333 300 mod 4;
#X obj 297 35 r num-pages-per-button;
#X obj 297 61 * 100;
#X obj 251 155 mod 100;
#X obj 35 140 /;
#X obj 35 260 i;
#X obj 127 380 i;
#X obj 127 299 / 4;
#X obj 127 237 mod 100;
#X obj 186 153 i;
#X obj 186 175 mod;
#X obj 186 131 / 100;
#X connect 0 0 12 0;
#X connect 0 0 13 0;
#X connect 0 0 20 0;
#X connect 9 0 8 0;
#X connect 10 0 11 0;
#X connect 10 0 19 1;
#X connect 11 0 12 1;
#X connect 11 0 13 1;
#X connect 12 0 9 0;
#X connect 12 0 17 0;
#X connect 13 0 14 0;
#X connect 14 0 5 0;
#X connect 15 0 6 0;
#X connect 16 0 15 0;
#X connect 17 0 16 0;
#X connect 18 0 19 0;
#X connect 19 0 7 0;
#X connect 20 0 18 0;
