#N canvas 3 49 1360 716 10;
#X obj 158 35 i 2;
#X text 184 33 num pages per button;
#X text 380 27 num presets;
#X obj 231 71 *;
#X obj 231 93 * 100;
#X text 285 91 array size (25 buttons 4 knobs);
#X obj 168 -44 loadbang;
#X obj 353 27 i 2;
#X obj 231 124 array size knob-values;
#X obj 168 -8 t b b;
#N canvas 3 50 1360 716 write-to-array 0;
#X msg 233 89 0;
#X obj 356 206 r current-button;
#X obj 386 249 * 25;
#X obj 356 309 +;
#X obj 386 270 t b f;
#X obj 338 356 +;
#X msg 317 89 1;
#X msg 387 89 2, f 2;
#X msg 451 89 3;
#X msg 338 177 \$1;
#X obj 275 5 r knob2;
#X obj 355 -37 r knob3;
#X obj 431 4 r knob4;
#X msg 201 188 \$1;
#X obj 356 331 * 4;
#X obj 386 226 r current-page;
#X obj 201 428 tabwrite knob-values;
#X obj 201 51 t f b;
#X obj 275 51 t f b;
#X obj 355 51 t f b;
#X obj 431 51 t f b;
#X obj 529 87 * 100;
#X obj 572 99 r num-pages-per-button;
#X obj 554 174 *;
#X obj 338 378 +;
#X obj 221 362 pack f f f;
#X obj 314 307 * 4;
#X obj 296 331 +;
#N canvas 4 50 702 570 the-array 0;
#N canvas 0 50 450 250 (subpatch) 0;
#X array knob-values 400 float 3;
#A 0 0.953125 0.40567 0 0.346041 0.328125 0.487781 0.525904 0.59042
0.0546875 0.179688 0 0 0 0.398827 0.678397 0.567937 0.14565 0.369501
0.428153 0.775171 0.686217 0.69697 0.296188 0.353861 0 0.713587 0 0.445312
0 0 0 0 0.13001 0.790811 0.717498 0 0 0 0 0 0 0 0 0 0 0 0 0 0 0 0 0
0.6875 0 0.664712 0 0.34375 0 0 0 0.0390625 0 0 0 0 0 0 0 0.671875
0 0 0 0.226562 0 0 0 0 0 0 0 0.5 0.623656 0 0 0 0 0 0 0.242424 0.587488
0.420332 0.637341 0 0 0 0 0 0 0 0 0 0 0 0 0.726562 0.773216 0 0 0.171875
0 0 0 1 0.785924 0.346041 0 0 0 0 0 0 0.249267 0.642229 1 0 0 0 0.328125
0 0 0 0 0 0.316716 0.616813 0.490714 0 0 0 0 0 0 0 0 0 0 0 0 0.375
0 0 0 0.234375 0.5 0.5 0.492188 0 0 0 0 0 0 0 0 0 0 0 0 0.15625 0 0
0 0 0.349951 0.580645 0 0 0 0 0 0 0 0 0 0 0 0 0 0 0 0 0 0 0 0 0 0 0
0 0 0.240469 0 0.588465 0 0 0 0 0 0.390625 0 0 0 0 0 0 0 0 0 0 0 0
0 0 0 0 0 0 0 0 0 0 0 0 0.68 0.699999 0.819996 0.854995 0.889995 0.929994
0.969992 0.996146 1.0223 1.04845 1.07461 1.10076 1.12691 1.15306 1.17922
0.0879765 0.740958 0.584555 0.488759 1.30998 1.32998 1.34998 1.39998
1.40498 1.40998 1.42998 1.45998 1.51998 1.53998 0 0.484848 0 0 0 0
0 0 0 0 0 0 0 0 0 0 0 0 0 0 0 0 0 0 0 0 0 0.584555 0.549365 0.377322
0 0 0 0 0 0 0 0 0.507331 0.788856 0 0 0 0 0.42131 0 0 0 0 0 0 0 0.418377
0 0 0 0 0 0 0 0 0 0 0 0 0 0 0 0 0 0 0 0 0 0 0 0 0 0 0 0 0 0 0 0 0 0
0 0 0 0 0 0 0 0 0 0 0 0 0 0 0.26002 0 0 0 0 0 0 0 0 0 0 0 0 0 0 0 0
0 0 0 0 0 0 0 0 0 0 0 0 0 0 0 0 0 0 0 0;
#X coords 0 1 400 0 400 100 1 0 0;
#X restore 17 70 graph;
#X restore 376 436 pd the-array;
#X obj 529 61 r current-preset;
#X obj 221 406 s changed-parameter;
#X msg 221 384 \$2 \$3 \$1 0;
#X obj 201 -37 r knob1;
#X obj 201 -15 knob-takeover 0;
#X obj 275 27 knob-takeover 1;
#X obj 355 -15 knob-takeover 2;
#X obj 431 26 knob-takeover 3;
#X connect 0 0 9 0;
#X connect 1 0 3 0;
#X connect 1 0 25 1;
#X connect 2 0 4 0;
#X connect 3 0 14 0;
#X connect 4 0 3 0;
#X connect 4 1 3 1;
#X connect 5 0 24 0;
#X connect 6 0 9 0;
#X connect 7 0 9 0;
#X connect 8 0 9 0;
#X connect 9 0 5 0;
#X connect 9 0 27 0;
#X connect 10 0 34 0;
#X connect 11 0 35 0;
#X connect 12 0 36 0;
#X connect 13 0 16 0;
#X connect 13 0 25 0;
#X connect 14 0 5 1;
#X connect 15 0 2 0;
#X connect 15 0 26 0;
#X connect 17 0 13 0;
#X connect 17 1 0 0;
#X connect 18 0 13 0;
#X connect 18 1 6 0;
#X connect 19 0 13 0;
#X connect 19 1 7 0;
#X connect 20 0 13 0;
#X connect 20 1 8 0;
#X connect 21 0 23 0;
#X connect 22 0 23 1;
#X connect 23 0 24 1;
#X connect 24 0 16 1;
#X connect 25 0 31 0;
#X connect 26 0 27 1;
#X connect 27 0 25 2;
#X connect 29 0 21 0;
#X connect 31 0 30 0;
#X connect 32 0 33 0;
#X connect 33 0 17 0;
#X connect 34 0 18 0;
#X connect 35 0 19 0;
#X connect 36 0 20 0;
#X restore 544 71 pd write-to-array;
#X obj 158 149 s num-pages-per-button;
#N canvas 3 49 1360 716 button-logic 1;
#X obj -174 -18 r notes;
#X obj -174 57 moses 60;
#X obj -121 87 - 59;
#X floatatom -121 142 5 0 0 0 - - -, f 5;
#X obj -8 94 r aux;
#X obj -8 116 select 1;
#X msg -8 138 0;
#X obj -8 198 i -1;
#X obj -8 166 t b f f;
#X obj 24 237 ==;
#X obj -174 4 unpack;
#X obj -174 26 spigot;
#X obj 30 267 route 0 1;
#X obj 30 328 i 0;
#X obj 30 301 t b i;
#X obj 98 364 i 0;
#X obj 98 386 + 1;
#X obj 98 408 mod 3;
#X obj 98 430 t b f;
#X obj -129 250 s current-button;
#X obj 30 501 s current-page;
#X text -140 295 reset page counter to 0;
#X text 90 326 increment page counter;
#X obj 130 377 r num-pages-per-button;
#X obj -76 224 t f f;
#X obj -105 275 s current-button-prio;
#X obj 52 470 t f f;
#X obj 148 515 s current-page-prio;
#X obj -121 114 button2tap;
#X connect 0 0 10 0;
#X connect 1 1 2 0;
#X connect 2 0 28 0;
#X connect 3 0 8 0;
#X connect 4 0 5 0;
#X connect 5 0 6 0;
#X connect 6 0 8 0;
#X connect 7 0 9 1;
#X connect 7 0 24 0;
#X connect 8 0 7 0;
#X connect 8 1 7 1;
#X connect 8 2 9 0;
#X connect 9 0 12 0;
#X connect 10 0 11 0;
#X connect 10 1 11 1;
#X connect 11 0 1 0;
#X connect 12 0 14 0;
#X connect 12 1 15 0;
#X connect 13 0 15 1;
#X connect 13 0 26 0;
#X connect 14 0 13 0;
#X connect 14 1 13 1;
#X connect 15 0 16 0;
#X connect 16 0 17 0;
#X connect 17 0 18 0;
#X connect 18 0 13 0;
#X connect 18 1 13 1;
#X connect 23 0 17 1;
#X connect 24 0 19 0;
#X connect 24 1 25 0;
#X connect 26 0 20 0;
#X connect 26 1 27 0;
#X connect 28 0 3 0;
#X restore -6 -20 pd button-logic;
#X obj 140 -39 bng 15 250 50 0 empty empty empty 17 7 0 10 -262144
-1 -1;
#X floatatom 543 5 5 0 0 0 - - -, f 5;
#X obj 543 30 s current-preset;
#X text 674 61 this send also value changes caused by knob movements
;
#N canvas 497 237 763 570 send-page-changes 0;
#X obj 324 55 r current-button;
#X obj 407 215 * 25;
#X obj 356 309 +;
#X obj 407 236 t b f;
#X obj 338 390 +;
#X obj 356 331 * 4;
#X obj 375 103 r current-page;
#X obj 515 229 * 100;
#X obj 558 241 r num-pages-per-button;
#X obj 540 316 *;
#X obj 338 412 +;
#X obj 166 503 pack f f f;
#X obj 314 307 * 4;
#X obj 296 331 +;
#X obj 515 203 r current-preset;
#X obj 166 547 s changed-parameter;
#X msg 137 210 0 \, 1 \, 2 \, 3;
#X obj 305 472 tabread knob-values;
#X obj 137 232 t f f;
#X obj 324 77 t b f;
#X obj 375 127 t b f;
#X msg 166 525 \$2 \$3 \$1 1;
#X connect 0 0 19 0;
#X connect 1 0 3 0;
#X connect 2 0 5 0;
#X connect 3 0 2 0;
#X connect 3 1 2 1;
#X connect 4 0 10 0;
#X connect 5 0 4 1;
#X connect 6 0 20 0;
#X connect 7 0 9 0;
#X connect 8 0 9 1;
#X connect 9 0 10 1;
#X connect 10 0 17 0;
#X connect 11 0 21 0;
#X connect 12 0 13 1;
#X connect 13 0 11 2;
#X connect 14 0 7 0;
#X connect 16 0 18 0;
#X connect 17 0 11 0;
#X connect 18 0 4 0;
#X connect 18 1 13 0;
#X connect 19 0 16 0;
#X connect 19 1 2 0;
#X connect 19 1 11 1;
#X connect 20 0 16 0;
#X connect 20 1 12 0;
#X connect 20 1 1 0;
#X connect 21 0 15 0;
#X restore 548 141 pd send-page-changes;
#X text 54 209 when a parameter \, page or prese is changed for each
parameter a list will be send to changed-paramter \, with the following
elements:;
#X text 55 281 source is:;
#X text 57 295 0: knob movement;
#X text 58 308 1: page change;
#X text 57 323 2: preset change;
#X text 55 253 button page*4+knob value source;
#X connect 0 0 3 0;
#X connect 0 0 11 0;
#X connect 3 0 4 0;
#X connect 4 0 8 0;
#X connect 6 0 9 0;
#X connect 7 0 3 1;
#X connect 9 0 0 0;
#X connect 9 1 7 0;
#X connect 13 0 9 0;
#X connect 14 0 15 0;
