#N canvas 686 49 677 716 10;
#X obj -46 254 t b f;
#X obj -173 -60 r changed-parameter;
#X obj -146 21 mod 4;
#X obj -173 170 spigot;
#X obj -103 37 > 0;
#X obj -146 108 &&;
#X msg -46 229 -1;
#X obj -85 345 spigot;
#X obj -46 293 i -1;
#X obj -46 317 < 0;
#X obj -49 434 +;
#X obj -130 573 i 0;
#X obj -130 545 t b f;
#X msg -127 456 0;
#X msg -100 517 1;
#X obj -75 486 spigot;
#X obj -85 395 >;
#X obj 10 341 >;
#X obj 10 275 expr if($f1 == 1 \, 1.01 \, $f1);
#X obj -169 607 spigot;
#X obj -85 61 inlet;
#X obj -169 629 outlet;
#X obj -49 458 == 1;
#X obj -85 92 t f f f;
#X obj -146 46 == \$1;
#X obj -173 -4 unpack f f f f;
#X msg -172 -38 \$3 \$2 \$4 \$1;
#X text -95 -39 new order: value page*knob source button;
#X obj 14 4 r current-page;
#X obj 118 1 r current-button;
#X obj 103 47 ==;
#X obj -1 60 ==;
#X obj -1 90 &&;
#X obj -42 30 div 4;
#X obj -146 140 &&;
#X connect 0 0 8 0;
#X connect 0 1 8 1;
#X connect 1 0 26 0;
#X connect 2 0 24 0;
#X connect 3 0 6 0;
#X connect 3 0 13 0;
#X connect 3 0 16 1;
#X connect 3 0 17 1;
#X connect 4 0 5 1;
#X connect 5 0 34 0;
#X connect 6 0 0 0;
#X connect 7 0 16 0;
#X connect 8 0 9 0;
#X connect 9 0 7 1;
#X connect 10 0 22 0;
#X connect 11 0 19 1;
#X connect 12 0 11 0;
#X connect 12 1 11 1;
#X connect 13 0 12 0;
#X connect 14 0 12 0;
#X connect 15 0 14 0;
#X connect 16 0 0 0;
#X connect 16 0 10 1;
#X connect 17 0 10 0;
#X connect 18 0 17 0;
#X connect 19 0 21 0;
#X connect 20 0 23 0;
#X connect 22 0 15 1;
#X connect 22 0 15 0;
#X connect 23 0 19 0;
#X connect 23 1 18 0;
#X connect 23 2 7 0;
#X connect 24 0 5 0;
#X connect 25 0 3 0;
#X connect 25 1 2 0;
#X connect 25 1 33 0;
#X connect 25 2 4 0;
#X connect 25 3 30 0;
#X connect 26 0 25 0;
#X connect 28 0 31 1;
#X connect 29 0 30 1;
#X connect 30 0 32 1;
#X connect 31 0 32 0;
#X connect 32 0 34 1;
#X connect 33 0 31 0;
#X connect 34 0 3 1;
