#N canvas 686 49 677 716 10;
#X obj -46 254 t b f;
#X obj -173 -60 r changed-parameter;
#X obj -133 43 mod 4;
#X obj -173 146 spigot;
#X obj -92 20 > 0;
#X msg -173 -38 \$3 \$2 \$4;
#X obj -173 -4 unpack f f f;
#X text -95 -39 new order: value page*knob source;
#X obj -133 106 &&;
#X msg -46 229 -1;
#X obj -85 345 spigot;
#X obj -46 293 i -1;
#X obj -46 317 < 0;
#X obj -49 434 +;
#X obj -130 573 i 0;
#X obj -130 545 t b f;
#X msg -127 456 0;
#X msg -100 517 1;
#X obj -75 486 spigot;
#X obj -85 395 >;
#X obj 10 341 >;
#X obj 10 275 expr if($f1 == 1 \, 1.01 \, $f1);
#X obj -169 607 spigot;
#X obj -85 61 inlet;
#X obj -169 629 outlet;
#X obj -49 458 == 1;
#X obj -85 92 t f f f;
#X obj -133 68 == \$1;
#X obj 11 136 r current-preset;
#X connect 0 0 11 0;
#X connect 0 1 11 1;
#X connect 1 0 5 0;
#X connect 2 0 27 0;
#X connect 3 0 9 0;
#X connect 3 0 16 0;
#X connect 3 0 19 1;
#X connect 3 0 20 1;
#X connect 4 0 8 1;
#X connect 5 0 6 0;
#X connect 6 0 3 0;
#X connect 6 1 2 0;
#X connect 6 2 4 0;
#X connect 8 0 3 1;
#X connect 9 0 0 0;
#X connect 10 0 19 0;
#X connect 11 0 12 0;
#X connect 12 0 10 1;
#X connect 13 0 25 0;
#X connect 14 0 22 1;
#X connect 15 0 14 0;
#X connect 15 1 14 1;
#X connect 16 0 15 0;
#X connect 17 0 15 0;
#X connect 18 0 17 0;
#X connect 19 0 0 0;
#X connect 19 0 13 1;
#X connect 20 0 13 0;
#X connect 21 0 20 0;
#X connect 22 0 24 0;
#X connect 23 0 26 0;
#X connect 25 0 18 1;
#X connect 25 0 18 0;
#X connect 26 0 22 0;
#X connect 26 1 21 0;
#X connect 26 2 10 0;
#X connect 27 0 8 0;
#X connect 28 0 9 0;
