#N canvas 1151 55 1138 661 10;
#X obj 228 388 tabwrite foo;
#X msg 356 127 \; readout 1 \; foo resize 10;
#N canvas 0 50 450 250 (subpatch) 0;
#X array foo 10 float 3;
#A 0 0.25 0.33 0.5 1 2 0.171429 -0.0142849 0 0 0;
#X coords 0 1 10 -1 200 140 1;
#X restore 100 20 graph;
#X obj 473 407 tabread foo;
#X floatatom 471 353 5 0 0 0 - - -, f 5;
#X floatatom 473 472 5 0 0 0 - - -, f 5;
#X msg 370 267 \; foo 0 0.25 0.33 0.5 1 2 3 4;
#X obj 535 95 list length;
#X floatatom 517 141 5 0 0 0 - - -, f 5;
#X obj 532 3 bng 15 250 50 0 empty empty empty 17 7 0 10 -262144 -1
-1;
#N canvas 2295 55 1138 661 list-nth 1;
#X obj 141 48 inlet, f 6;
#X obj 71 69 inlet;
#X obj 71 141 list split;
#X obj 141 83 - 1;
#X obj 99 207 outlet;
#X obj 99 175 list split 1;
#X obj 141 105 t b f;
#X connect 0 0 3 0;
#X connect 1 0 2 0;
#X connect 2 1 5 0;
#X connect 3 0 6 0;
#X connect 5 0 4 0;
#X connect 6 0 2 0;
#X connect 6 1 2 1;
#X restore 680 91 pd list-nth;
#X floatatom 753 49 5 0 0 0 - - -, f 5;
#X floatatom 686 142 5 0 0 0 - - -, f 5;
#X obj 535 51 list 1 3 6;
#X obj 741 139 print bla;
#X connect 3 0 5 0;
#X connect 4 0 3 0;
#X connect 7 0 8 0;
#X connect 9 0 13 0;
#X connect 10 0 12 0;
#X connect 10 0 14 0;
#X connect 11 0 10 1;
#X connect 11 0 9 0;
#X connect 13 0 7 0;
#X connect 13 0 10 0;
