#N canvas 3 49 449 716 10;
#X obj 875 200 master-metronome;
#X obj 875 165 tgl 15 0 empty empty empty 17 7 0 10 -262144 -1 -1 1
1;
#X obj 875 98 loadbang;
#X msg 875 130 1;
#X obj 984 136 * 250;
#X obj 984 164 + 10;
#X obj 1095 279 i;
#X obj 1095 301 change -1;
#X obj 830 244 i;
#X obj 830 266 change -1;
#X obj 77 229 s base-harmonic-freq;
#X obj 561 226 s decay;
#X obj 1114 236 s~ base-rhythm-phasor;
#X obj 795 793 s rhythmicon-notes;
#X obj 40 27 r knob1;
#X obj 77 188 mtof;
#X obj 984 75 r knob2;
#X obj 562 89 r knob4;
#X obj 562 115 t f f;
#X obj 562 137 *;
#X obj 1115 202 phasor~;
#X obj 1237 10 r bpm;
#X floatatom 1114 74 5 0 0 0 - - -, f 5;
#X floatatom 1114 121 5 0 0 0 - - -, f 5;
#X obj 1114 96 / 240;
#X obj 873 406 r notes;
#X obj 873 428 unpack;
#X obj 851 459 moses 72;
#X obj 977 517 f;
#X obj 906 488 t f b;
#X obj 923 542 pack;
#X obj 857 490 t f b;
#X obj 865 543 pack;
#X obj 919 585 stripnote;
#X obj 927 633 s transpose;
#X obj 134 68 r transpose;
#X obj 75 133 f;
#X obj 120 109 t b f;
#X obj 75 157 +;
#X obj 115 136 - 72;
#X obj 876 576 r aux;
#X obj 876 598 sel 1;
#X obj 561 165 * 2000;
#X msg 830 304 \; screenLine2 2: Tempo \$1 BPM MIDI \;;
#X msg 1098 337 \; screenLine2 2: Tempo \$1 BPM \;;
#X obj 622 193 i;
#X obj 622 215 change -1;
#X msg 619 274 \; screenLine4 4: Decay \$1 ms \;;
#X text 1015 56 tempo stuff;
#X text 818 378 notes \, split keyboard;
#X msg 831 663 \; led 3;
#X msg 881 663 \; led 0;
#X obj 19 231 i;
#X obj 19 253 change -1;
#X msg 20 295 \; screenLine1 1: Base Freq \$1 Hz \;;
#N canvas 4 50 450 300 once 0;
#X obj 179 28 inlet;
#X msg 138 64 0;
#X obj 38 21 inlet;
#X obj 59 142 i 0;
#X obj 117 142 + 1;
#X obj 46 68 bang;
#X obj 58 184 sel 0;
#X obj 52 254 outlet;
#X connect 0 0 1 0;
#X connect 1 0 3 1;
#X connect 2 0 5 0;
#X connect 3 0 4 0;
#X connect 3 0 6 0;
#X connect 4 0 3 1;
#X connect 5 0 3 0;
#X connect 6 0 7 0;
#X restore 853 714 pd once;
#X obj 801 672 bng 15 250 50 0 empty empty empty 17 7 0 10 -262144
-1 -1;
#X obj 962 671 bng 15 250 50 0 empty empty empty 17 7 0 10 -262144
-1 -1;
#X obj 876 747 bng 15 250 50 0 empty empty empty 17 7 0 10 -262144
-1 -1;
#X obj 876 770 s reset-phase;
#X msg 1213 144 0;
#X obj 1182 76 r reset-phase;
#X msg 1323 128 0, f 2;
#X obj 1114 140 f;
#X obj 1114 168 spigot;
#X obj 930 719 s stop-phasor;
#X msg 1181 135 1;
#X obj 1286 77 r stop-phasor;
#X obj 1291 104 t b b;
#X msg 1291 129 0, f 2;
#X obj 1182 104 t b b b;
#X msg 1693 219 \; led 7;
#X obj 768 518 moses 60;
#X obj 795 627 latch-notes2;
#X obj 858 519 pipe 5;
#X obj 916 516 pipe 5;
#X obj 41 79 + 1;
#X obj 33 117 i;
#X floatatom 25 154 5 0 0 0 - - -, f 5;
#X obj 24 176 * 12;
#X obj 40 51 * 5;
#X obj 768 481 stripnote;
#X floatatom 1046 129 5 0 0 0 - - -, f 5;
#X obj 1114 47 bpm-clock-modifier;
#X obj 1039 181 s bpm-modified;
#X obj 1362 249 r bpm-modified;
#X obj 1362 309 / 960;
#X obj 1466 163 r knob3;
#X obj 1362 280 * 1;
#X obj 1404 282 * 120;
#X obj 1359 333 lop~ 5;
#X obj 1510 242 exp;
#X obj 1511 321 i;
#X obj 1511 271 * 99;
#X obj 1511 293 + 1;
#X obj 1506 212 * 11;
#X msg 1595 219 \; led 0;
#X msg 1690 259 \; led 2;
#X msg 1595 259 \; led 1;
#X obj 249 383 knob-state-per-button;
#X obj 221 530 delwrite~ signalL 16000;
#X obj 511 657 s delay-per-tap;
#X obj 532 604 loadbang;
#X msg 532 626 500;
#X obj 400 510 r~ inR;
#X obj 220 506 r~ inL;
#N canvas 276 77 267 688 display 0;
#X obj 329 72 route;
#X msg 366 99 \$1;
#X obj 366 145 ==;
#X obj 292 33 t l l;
#X obj 292 5 r changed-parameter;
#N canvas 3 50 1360 716 tap-display 0;
#X obj 275 15 inlet;
#X obj 275 63 route 0 1 2 3 4 5 6 7;
#X msg 275 40 \$2 \$3;
#X msg 303 285 \; screenLine3 3: Volume \$1 \;;
#X obj 319 326 v2s 2 0;
#X obj 275 90 v2s 2 2;
#X obj 290 183 v2s 2 2;
#X msg 373 573 \; screenLine3 3: Distortion \$1 \;;
#X msg 319 351 \; screenLine4 4: Global Feedback \$1% \;;
#X msg 389 638 \; screenLine4 4: Local Feedback \$1% \;;
#X obj 392 613 v2s 2 0;
#X obj 346 385 v2freq;
#X obj 360 469 v2freq;
#X msg 360 501 \; screenLine2 2: LP \$1Hz \;;
#X obj 551 36 inlet;
#X obj 275 116 pack f f;
#X obj 346 410 pack f f;
#X msg 276 140 \; screenLine1 1: Input L/R \$1 |Tap\$2 \;;
#X msg 346 434 \; screenLine1 1: HP \$1Hz | Tap\$2 \;;
#X obj 290 205 pack f f;
#X obj 639 43 inlet, f 6;
#X msg 290 234 \; screenLine2 2: Output L/R \$1 |P\$2 \;;
#X connect 0 0 2 0;
#X connect 1 0 5 0;
#X connect 1 1 6 0;
#X connect 1 2 3 0;
#X connect 1 3 4 0;
#X connect 1 4 11 0;
#X connect 1 5 12 0;
#X connect 1 6 7 0;
#X connect 1 7 10 0;
#X connect 2 0 1 0;
#X connect 4 0 8 0;
#X connect 5 0 15 0;
#X connect 6 0 19 0;
#X connect 10 0 9 0;
#X connect 11 0 16 0;
#X connect 12 0 13 0;
#X connect 14 0 15 1;
#X connect 14 0 16 1;
#X connect 15 0 17 0;
#X connect 16 0 18 0;
#X connect 19 0 21 0;
#X connect 20 0 19 1;
#X restore 349 245 pd tap-display;
#X obj 411 31 r current-button-prio;
#X obj 409 121 r current-page-prio;
#X obj 292 175 spigot 0;
#X obj 366 123 div 4;
#N canvas 3 50 1360 716 direct-display 0;
#X obj 275 15 inlet;
#X obj 275 84 route 0 1 2 3 4 5 6 7;
#X msg 275 138 \; screenLine1 1: Input L/R \$1 \;;
#X msg 291 213 \; screenLine2 2: Output L/R \$1 \;;
#X msg 303 285 \; screenLine3 3: Volume \$1 \;;
#X obj 319 326 v2s 2 0;
#X obj 275 111 v2s 2 2;
#X obj 290 183 v2s 2 2;
#X msg 373 573 \; screenLine3 3: Distortion \$1 \;;
#X obj 392 613 v2s 2 0;
#X msg 389 637 \; screenLine4 4: \;;
#X msg 319 351 \; screenLine4 4: \;;
#X msg 275 51 \$1 \$2;
#X obj 343 395 v2freq;
#X obj 359 469 v2freq;
#X msg 345 426 \; screenLine1 1: High Pass \$1Hz \;;
#X msg 359 501 \; screenLine2 2: Low Pass \$1Hz \;;
#X connect 0 0 12 0;
#X connect 1 0 6 0;
#X connect 1 1 7 0;
#X connect 1 2 4 0;
#X connect 1 3 5 0;
#X connect 1 4 13 0;
#X connect 1 5 14 0;
#X connect 1 6 8 0;
#X connect 1 7 9 0;
#X connect 5 0 11 0;
#X connect 6 0 2 0;
#X connect 7 0 3 0;
#X connect 9 0 10 0;
#X connect 12 0 1 0;
#X connect 13 0 15 0;
#X connect 14 0 16 0;
#X restore 292 280 pd direct-display;
#X obj 292 211 route 0 24;
#X obj 435 162 r current-preset;
#X msg 326 126 0;
#X connect 0 0 1 0;
#X connect 0 1 13 0;
#X connect 1 0 9 0;
#X connect 2 0 8 1;
#X connect 3 0 8 0;
#X connect 3 1 0 0;
#X connect 4 0 3 0;
#X connect 6 0 0 1;
#X connect 6 0 5 1;
#X connect 7 0 2 1;
#X connect 8 0 11 0;
#X connect 9 0 2 0;
#X connect 11 0 10 0;
#X connect 11 2 5 0;
#X connect 12 0 5 2;
#X connect 13 0 8 1;
#X restore 267 611 pd display;
#X obj 59 421 delay-tap 1;
#X obj 400 533 delwrite~ signalR 16000;
#X obj 141 420 delay-tap 2;
#N canvas 458 50 449 716 display-row5 0;
#X obj 67 172 print modename;
#X obj 67 66 r current-mode-name;
#X connect 1 0 0 0;
#X restore 270 642 pd display-row5;
#X msg 491 438 0;
#X obj 491 460 s current-seq-preset;
#X msg 537 428 2;
#N canvas 3 49 1360 716 preset-mode 0;
#X obj 263 4 r notes;
#X obj 356 3 r current-mode;
#X obj 263 46 spigot;
#X obj 263 68 unpack;
#X obj 263 90 spigot;
#X obj 356 25 == 2;
#X obj 93 210 < 10;
#X obj 55 210 >= 0;
#X obj 263 112 - 60;
#X obj 36 269 spigot;
#X obj 55 240 &&;
#X obj 263 257 spigot;
#X obj 282 228 &&;
#X obj 263 279 - 12;
#X obj 328 198 < 22;
#X obj 282 198 >= 12;
#X obj 36 347 s current-seq-preset;
#X obj 263 347 s current-preset;
#X obj 36 178 t f f f;
#X obj 263 168 t f f f;
#X connect 0 0 2 0;
#X connect 1 0 5 0;
#X connect 2 0 3 0;
#X connect 3 0 4 0;
#X connect 3 1 4 1;
#X connect 4 0 8 0;
#X connect 5 0 2 1;
#X connect 6 0 10 1;
#X connect 7 0 10 0;
#X connect 8 0 18 0;
#X connect 8 0 19 0;
#X connect 9 0 16 0;
#X connect 10 0 9 1;
#X connect 11 0 13 0;
#X connect 12 0 11 1;
#X connect 13 0 17 0;
#X connect 14 0 12 1;
#X connect 15 0 12 0;
#X connect 18 0 9 0;
#X connect 18 1 7 0;
#X connect 18 2 6 0;
#X connect 19 0 11 0;
#X connect 19 1 15 0;
#X connect 19 2 14 0;
#X restore 387 383 pd preset-mode;
#N canvas 3 425 677 340 switch-mode 0;
#X obj 101 41 r aux;
#X obj 101 132 i 0;
#X obj 156 131 + 1;
#X obj 156 153 mod 3;
#X obj 44 254 s current-mode;
#X msg 101 86 bang;
#X obj 101 63 select 1;
#X obj 176 255 route 0 1 2;
#X msg 176 284 play;
#X msg 218 285 edit;
#X msg 262 284 preset;
#X obj 176 315 s current-mode-name;
#X connect 0 0 6 0;
#X connect 1 0 2 0;
#X connect 1 0 4 0;
#X connect 1 0 7 0;
#X connect 2 0 3 0;
#X connect 3 0 1 1;
#X connect 5 0 1 0;
#X connect 6 0 5 0;
#X connect 7 0 8 0;
#X connect 7 1 9 0;
#X connect 7 2 10 0;
#X connect 8 0 11 0;
#X connect 9 0 11 0;
#X connect 10 0 11 0;
#X restore 62 383 pd switch-mode;
#N canvas 686 425 677 340 play-mode 0;
#N canvas 0 50 450 250 (subpatch) 0;
#X array taps-array 170 float 3;
#A 0 0 1 1 1 0 1 0 0 0 1 0 0 0 0 1 0 0 0 0 0 0 0 0 0 0 0 0 0 0 0 0
0 0 0 1 0 0 0 0 0 0 0 1 1 1 0 0 0 0 0 0 0 0 0 0 0 0 0 0 0 0 0 0 0 0
0 0 0 0 0 0 0 0 0 0 0 0 0 0 0 0 0 0 0 0 0 0 0 0 0 0 0 0 0 0 0 0 0 0
0 0 0 0 0 0 0 0 0 0 0 0 0 0 0 0 0 0 0 0 0 0 0 0 0 0 0 0 0 0 0 0 0 0
0 0 0 0 0 0 0 0 0 0 0 0 0 0 0 0 0 0 0 0 0 0 0 0 0 0 0 0 0 0 0 0 0 0
0 0 0;
#X coords 0 1 170 -1 200 140 1 0 0;
#X restore 31 25 graph;
#X obj 36 615 s tap-on-off;
#X obj 36 569 pack f f;
#X obj 36 170 r notes;
#X obj 282 245 r current-seq-preset;
#X obj 36 302 button2tap;
#X obj 129 169 r current-mode;
#X obj 36 212 spigot;
#X obj 129 191 == 0;
#X obj 36 234 unpack;
#X obj 36 256 spigot;
#X obj 282 267 * 17;
#X text 118 608 tap-number (0-16) status (0/1);
#X obj 63 350 < 17;
#X obj 36 324 t f f;
#X obj 36 375 spigot;
#X obj 132 451 tabread taps-array;
#X obj 113 402 +;
#X obj 132 473 + 1;
#X obj 132 500 mod 2;
#X obj 132 528 tabwrite taps-array;
#X obj 113 426 t f f f;
#X obj 36 278 - 59;
#X obj 282 388 range 0 17;
#X obj 282 410 +;
#X obj 327 458 tabread taps-array;
#X obj 282 432 t f f;
#X obj 282 507 pack f f;
#X obj 282 583 s tap-on-off;
#X obj 282 358 t f f;
#X obj 282 478 mod 17;
#X obj 36 517 mod 17;
#X connect 2 0 1 0;
#X connect 3 0 7 0;
#X connect 4 0 11 0;
#X connect 5 0 14 0;
#X connect 6 0 8 0;
#X connect 7 0 9 0;
#X connect 8 0 7 1;
#X connect 9 0 10 0;
#X connect 9 1 10 1;
#X connect 10 0 22 0;
#X connect 11 0 17 1;
#X connect 11 0 29 0;
#X connect 13 0 15 1;
#X connect 14 0 15 0;
#X connect 14 1 13 0;
#X connect 15 0 17 0;
#X connect 16 0 18 0;
#X connect 17 0 21 0;
#X connect 18 0 19 0;
#X connect 19 0 20 0;
#X connect 19 0 2 1;
#X connect 21 0 31 0;
#X connect 21 1 16 0;
#X connect 21 2 20 1;
#X connect 22 0 5 0;
#X connect 23 0 24 0;
#X connect 24 0 26 0;
#X connect 25 0 27 1;
#X connect 26 0 30 0;
#X connect 26 1 25 0;
#X connect 27 0 28 0;
#X connect 29 0 23 0;
#X connect 29 1 24 1;
#X connect 30 0 27 0;
#X connect 31 0 2 0;
#X restore 167 383 pd play-mode;
#X text 286 365 edit mode;
#X connect 0 1 6 0;
#X connect 1 0 0 0;
#X connect 2 0 3 0;
#X connect 3 0 1 0;
#X connect 4 0 5 0;
#X connect 5 0 0 1;
#X connect 6 0 7 0;
#X connect 8 0 9 0;
#X connect 14 0 80 0;
#X connect 15 0 10 0;
#X connect 15 0 52 0;
#X connect 16 0 4 0;
#X connect 16 0 83 0;
#X connect 17 0 18 0;
#X connect 18 0 19 0;
#X connect 18 1 19 1;
#X connect 19 0 42 0;
#X connect 20 0 12 0;
#X connect 21 0 83 1;
#X connect 22 0 24 0;
#X connect 23 0 63 0;
#X connect 24 0 23 0;
#X connect 25 0 26 0;
#X connect 25 0 81 0;
#X connect 26 0 27 0;
#X connect 26 1 28 1;
#X connect 27 0 31 0;
#X connect 27 1 29 0;
#X connect 28 0 30 1;
#X connect 28 0 32 1;
#X connect 29 0 75 0;
#X connect 29 1 28 0;
#X connect 30 0 33 0;
#X connect 31 0 74 0;
#X connect 31 1 28 0;
#X connect 32 0 73 0;
#X connect 33 0 34 0;
#X connect 35 0 37 0;
#X connect 36 0 38 0;
#X connect 37 0 36 0;
#X connect 37 1 39 0;
#X connect 38 0 15 0;
#X connect 39 0 38 1;
#X connect 40 0 41 0;
#X connect 41 0 73 1;
#X connect 42 0 45 0;
#X connect 42 0 11 0;
#X connect 45 0 46 0;
#X connect 52 0 53 0;
#X connect 55 0 58 0;
#X connect 56 0 55 0;
#X connect 57 0 55 1;
#X connect 57 0 65 0;
#X connect 58 0 59 0;
#X connect 60 0 20 1;
#X connect 61 0 70 0;
#X connect 62 0 64 1;
#X connect 63 0 64 0;
#X connect 64 0 20 0;
#X connect 66 0 64 1;
#X connect 67 0 68 0;
#X connect 68 0 69 0;
#X connect 68 1 62 0;
#X connect 69 0 20 0;
#X connect 70 0 63 0;
#X connect 70 1 66 0;
#X connect 70 2 60 0;
#X connect 72 0 73 1;
#X connect 73 0 13 0;
#X connect 73 1 56 0;
#X connect 73 2 51 0;
#X connect 73 2 57 0;
#X connect 74 0 32 0;
#X connect 75 0 30 0;
#X connect 76 0 77 0;
#X connect 77 0 78 0;
#X connect 78 0 79 0;
#X connect 79 0 36 0;
#X connect 80 0 76 0;
#X connect 81 0 72 0;
#X connect 82 0 84 0;
#X connect 83 0 82 0;
#X connect 83 0 22 0;
#X connect 83 1 8 0;
#X connect 85 0 88 0;
#X connect 85 0 89 1;
#X connect 86 0 90 0;
#X connect 87 0 93 0;
#X connect 87 0 95 0;
#X connect 88 0 86 0;
#X connect 89 0 86 0;
#X connect 91 0 88 1;
#X connect 91 0 89 0;
#X connect 93 0 94 0;
#X connect 94 0 92 0;
#X connect 95 0 91 0;
#X connect 102 0 103 0;
#X connect 103 0 101 0;
#X connect 104 0 108 0;
#X connect 105 0 100 0;
#X connect 111 0 112 0;
#X connect 113 0 112 0;
