#N canvas 3 49 1360 716 10;
#X obj 1586 22 loadbang;
#X obj 875 200 master-metronome;
#X obj 875 165 tgl 15 0 empty empty empty 17 7 0 10 -262144 -1 -1 1
1;
#X obj 875 98 loadbang;
#X msg 875 130 1;
#X obj 984 136 * 250;
#X obj 984 164 + 10;
#X obj 1095 279 i;
#X obj 1095 301 change -1;
#X obj 830 244 i;
#X obj 830 266 change -1;
#X obj 77 229 s base-harmonic-freq;
#X obj 561 226 s decay;
#X obj 1114 236 s~ base-rhythm-phasor;
#X obj 795 793 s rhythmicon-notes;
#X obj 40 27 r knob1;
#X obj 77 188 mtof;
#X obj 984 75 r knob2;
#X obj 562 89 r knob4;
#X obj 562 115 t f f;
#X obj 562 137 *;
#X obj 1115 202 phasor~;
#X obj 1237 10 r bpm;
#X floatatom 1114 74 5 0 0 0 - - -, f 5;
#X floatatom 1114 121 5 0 0 0 - - -, f 5;
#X obj 1114 96 / 240;
#X obj 873 406 r notes;
#X obj 873 428 unpack;
#X obj 851 459 moses 72;
#X obj 977 517 f;
#X obj 906 488 t f b;
#X obj 923 542 pack;
#X obj 857 490 t f b;
#X obj 865 543 pack;
#X obj 919 585 stripnote;
#X obj 927 633 s transpose;
#X obj 134 68 r transpose;
#X obj 75 133 f;
#X obj 120 109 t b f;
#X obj 75 157 +;
#X obj 115 136 - 72;
#X obj 876 576 r aux;
#X obj 876 598 sel 1;
#X obj 561 165 * 2000;
#X msg 830 304 \; screenLine2 2: Tempo \$1 BPM MIDI \;;
#X msg 1098 337 \; screenLine2 2: Tempo \$1 BPM \;;
#X obj 622 193 i;
#X obj 622 215 change -1;
#X msg 619 274 \; screenLine4 4: Decay \$1 ms \;;
#X text 1015 56 tempo stuff;
#X text 818 378 notes \, split keyboard;
#X msg 831 663 \; led 3;
#X msg 881 663 \; led 0;
#X msg 1586 53 \; screenLine1 1: Base Freq \; screenLine2 2: Tempo
\; screenLine3 3: Brigtness \; screenLine4 4: Decay \; screenLine5
Aux: Release Latch \;;
#X obj 19 231 i;
#X obj 19 253 change -1;
#X msg 20 295 \; screenLine1 1: Base Freq \$1 Hz \;;
#N canvas 4 50 450 300 once 0;
#X obj 179 28 inlet;
#X msg 138 64 0;
#X obj 38 21 inlet;
#X obj 59 142 i 0;
#X obj 117 142 + 1;
#X obj 46 68 bang;
#X obj 58 184 sel 0;
#X obj 52 254 outlet;
#X connect 0 0 1 0;
#X connect 1 0 3 1;
#X connect 2 0 5 0;
#X connect 3 0 4 0;
#X connect 3 0 6 0;
#X connect 4 0 3 1;
#X connect 5 0 3 0;
#X connect 6 0 7 0;
#X restore 853 714 pd once;
#X obj 801 672 bng 15 250 50 0 empty empty empty 17 7 0 10 -262144
-1 -1;
#X obj 962 671 bng 15 250 50 0 empty empty empty 17 7 0 10 -262144
-1 -1;
#X obj 876 747 bng 15 250 50 0 empty empty empty 17 7 0 10 -262144
-1 -1;
#X obj 876 770 s reset-phase;
#X msg 1213 144 0;
#X obj 1182 76 r reset-phase;
#X msg 1323 128 0, f 2;
#X obj 1114 140 f;
#X obj 1114 168 spigot;
#X obj 930 719 s stop-phasor;
#X msg 1181 135 1;
#X obj 1286 77 r stop-phasor;
#X obj 1291 104 t b b;
#X msg 1291 129 0, f 2;
#X obj 1182 104 t b b b;
#X msg 1693 219 \; led 7;
#X obj 768 518 moses 60;
#X obj 795 627 latch-notes2;
#X obj 858 519 pipe 5;
#X obj 916 516 pipe 5;
#X obj 41 79 + 1;
#X obj 33 117 i;
#X floatatom 25 154 5 0 0 0 - - -, f 5;
#X obj 24 176 * 12;
#X obj 40 51 * 5;
#X obj 768 481 stripnote;
#X floatatom 1046 129 5 0 0 0 - - -, f 5;
#X obj 1114 47 bpm-clock-modifier;
#X obj 1039 181 s bpm-modified;
#X obj 1362 249 r bpm-modified;
#X obj 1362 309 / 960;
#X obj 1466 163 r knob3;
#X obj 1362 280 * 1;
#X obj 1404 282 * 120;
#X obj 1359 333 lop~ 5;
#X obj 1510 242 exp;
#X obj 1511 321 i;
#X obj 1511 271 * 99;
#X obj 1511 293 + 1;
#X obj 1506 212 * 11;
#X msg 1595 219 \; led 0;
#X msg 1690 259 \; led 2;
#X msg 1595 259 \; led 1;
#X obj 29 503 knob-state-per-button;
#X obj 221 530 delwrite~ signalL 16000;
#X obj 511 657 s delay-per-tap;
#X obj 532 604 loadbang;
#X msg 532 626 500;
#X obj 400 510 r~ inR;
#X obj 220 506 r~ inL;
#N canvas 3 49 1360 716 display 0;
#X obj 329 72 route;
#X obj 73 66 r current-preset;
#X msg 366 99 \$1;
#X obj 366 145 ==;
#X obj 292 33 t l l;
#X obj 292 5 r changed-parameter;
#N canvas 3 49 1360 716 tap-display 1;
#X obj 275 15 inlet;
#X obj 275 63 route 0 1 2 3 4 5 6 7;
#X msg 275 40 \$2 \$3;
#X msg 291 213 \; screenLine2 2: Output L/R \$1 \;;
#X msg 303 285 \; screenLine3 3: Volume \$1 \;;
#X obj 319 326 v2s 2 0;
#X obj 275 90 v2s 2 2;
#X obj 290 183 v2s 2 2;
#X msg 373 573 \; screenLine3 3: Distortion \$1 \;;
#X msg 319 351 \; screenLine4 4: Global Feedback \$1% \;;
#X msg 389 638 \; screenLine4 4: Local Feedback \$1% \;;
#X obj 392 613 v2s 2 0;
#X obj 346 385 v2freq;
#X obj 360 469 v2freq;
#X msg 360 501 \; screenLine2 2: LP \$1Hz \;;
#X obj 551 36 inlet;
#X obj 275 116 pack f f;
#X obj 346 410 pack f f;
#X msg 276 140 \; screenLine1 1: Input L/R \$1 |Tap\$2 \;;
#X msg 346 434 \; screenLine1 1: HP \$1Hz | Tap\$2 \;;
#X connect 0 0 2 0;
#X connect 1 0 6 0;
#X connect 1 1 7 0;
#X connect 1 2 4 0;
#X connect 1 3 5 0;
#X connect 1 4 12 0;
#X connect 1 5 13 0;
#X connect 1 6 8 0;
#X connect 1 7 11 0;
#X connect 2 0 1 0;
#X connect 5 0 9 0;
#X connect 6 0 16 0;
#X connect 7 0 3 0;
#X connect 11 0 10 0;
#X connect 12 0 17 0;
#X connect 13 0 14 0;
#X connect 15 0 16 1;
#X connect 15 0 17 1;
#X connect 16 0 18 0;
#X connect 17 0 19 0;
#X restore 351 245 pd tap-display;
#X obj 356 47 r current-button-prio;
#X obj 409 121 r current-page-prio;
#X obj 227 86 print t;
#X obj 293 175 spigot 0;
#X obj 366 123 div 4;
#N canvas 3 49 1360 716 direct-display 0;
#X obj 275 15 inlet;
#X obj 275 84 route 0 1 2 3 4 5 6 7;
#X msg 275 138 \; screenLine1 1: Input L/R \$1 \;;
#X msg 291 213 \; screenLine2 2: Output L/R \$1 \;;
#X msg 303 285 \; screenLine3 3: Volume \$1 \;;
#X obj 319 326 v2s 2 0;
#X obj 275 111 v2s 2 2;
#X obj 290 183 v2s 2 2;
#X msg 373 573 \; screenLine3 3: Distortion \$1 \;;
#X obj 392 613 v2s 2 0;
#X msg 389 637 \; screenLine4 4: \;;
#X msg 319 351 \; screenLine4 4: \;;
#X msg 275 51 \$1 \$2;
#X obj 343 395 v2freq;
#X obj 359 469 v2freq;
#X msg 345 426 \; screenLine1 1: High Pass \$1Hz \;;
#X msg 359 501 \; screenLine2 2: Low Pass \$1Hz \;;
#X connect 0 0 12 0;
#X connect 1 0 6 0;
#X connect 1 1 7 0;
#X connect 1 2 4 0;
#X connect 1 3 5 0;
#X connect 1 4 13 0;
#X connect 1 5 14 0;
#X connect 1 6 8 0;
#X connect 1 7 9 0;
#X connect 5 0 11 0;
#X connect 6 0 2 0;
#X connect 7 0 3 0;
#X connect 9 0 10 0;
#X connect 12 0 1 0;
#X connect 13 0 15 0;
#X connect 14 0 16 0;
#X restore 294 280 pd direct-display;
#X obj 294 211 route 0 24;
#X connect 0 0 2 0;
#X connect 2 0 11 0;
#X connect 3 0 10 1;
#X connect 4 0 9 0;
#X connect 4 0 10 0;
#X connect 4 1 0 0;
#X connect 5 0 4 0;
#X connect 7 0 0 1;
#X connect 7 0 6 1;
#X connect 8 0 3 1;
#X connect 10 0 13 0;
#X connect 11 0 3 0;
#X connect 13 0 12 0;
#X connect 13 2 6 0;
#X restore 267 611 pd display;
#X obj 59 421 delay-tap 1;
#X obj 400 533 delwrite~ signalR 16000;
#X obj 34 736 delay-tap 1;
#X obj 158 734 delay-tap 2;
#X obj 141 420 delay-tap 2;
#X connect 0 0 53 0;
#X connect 1 1 7 0;
#X connect 2 0 1 0;
#X connect 3 0 4 0;
#X connect 4 0 2 0;
#X connect 5 0 6 0;
#X connect 6 0 1 1;
#X connect 7 0 8 0;
#X connect 9 0 10 0;
#X connect 15 0 82 0;
#X connect 16 0 11 0;
#X connect 16 0 54 0;
#X connect 17 0 5 0;
#X connect 17 0 85 0;
#X connect 18 0 19 0;
#X connect 19 0 20 0;
#X connect 19 1 20 1;
#X connect 20 0 43 0;
#X connect 21 0 13 0;
#X connect 22 0 85 1;
#X connect 23 0 25 0;
#X connect 24 0 65 0;
#X connect 25 0 24 0;
#X connect 26 0 27 0;
#X connect 26 0 83 0;
#X connect 27 0 28 0;
#X connect 27 1 29 1;
#X connect 28 0 32 0;
#X connect 28 1 30 0;
#X connect 29 0 31 1;
#X connect 29 0 33 1;
#X connect 30 0 77 0;
#X connect 30 1 29 0;
#X connect 31 0 34 0;
#X connect 32 0 76 0;
#X connect 32 1 29 0;
#X connect 33 0 75 0;
#X connect 34 0 35 0;
#X connect 36 0 38 0;
#X connect 37 0 39 0;
#X connect 38 0 37 0;
#X connect 38 1 40 0;
#X connect 39 0 16 0;
#X connect 40 0 39 1;
#X connect 41 0 42 0;
#X connect 42 0 75 1;
#X connect 43 0 46 0;
#X connect 43 0 12 0;
#X connect 46 0 47 0;
#X connect 54 0 55 0;
#X connect 57 0 60 0;
#X connect 58 0 57 0;
#X connect 59 0 57 1;
#X connect 59 0 67 0;
#X connect 60 0 61 0;
#X connect 62 0 21 1;
#X connect 63 0 72 0;
#X connect 64 0 66 1;
#X connect 65 0 66 0;
#X connect 66 0 21 0;
#X connect 68 0 66 1;
#X connect 69 0 70 0;
#X connect 70 0 71 0;
#X connect 70 1 64 0;
#X connect 71 0 21 0;
#X connect 72 0 65 0;
#X connect 72 1 68 0;
#X connect 72 2 62 0;
#X connect 74 0 75 1;
#X connect 75 0 14 0;
#X connect 75 1 58 0;
#X connect 75 2 52 0;
#X connect 75 2 59 0;
#X connect 76 0 33 0;
#X connect 77 0 31 0;
#X connect 78 0 79 0;
#X connect 79 0 80 0;
#X connect 80 0 81 0;
#X connect 81 0 37 0;
#X connect 82 0 78 0;
#X connect 83 0 74 0;
#X connect 84 0 86 0;
#X connect 85 0 84 0;
#X connect 85 0 23 0;
#X connect 85 1 9 0;
#X connect 87 0 90 0;
#X connect 87 0 91 1;
#X connect 88 0 92 0;
#X connect 89 0 95 0;
#X connect 89 0 97 0;
#X connect 90 0 88 0;
#X connect 91 0 88 0;
#X connect 93 0 90 1;
#X connect 93 0 91 0;
#X connect 95 0 96 0;
#X connect 96 0 94 0;
#X connect 97 0 93 0;
#X connect 104 0 105 0;
#X connect 105 0 103 0;
#X connect 106 0 110 0;
#X connect 107 0 102 0;
