#N canvas 3 49 1360 716 10;
#X obj 875 200 master-metronome;
#X obj 875 165 tgl 15 0 empty empty empty 17 7 0 10 -262144 -1 -1 1
1;
#X obj 875 98 loadbang;
#X msg 875 130 1;
#X obj 984 136 * 250;
#X obj 984 164 + 10;
#X obj 1095 279 i;
#X obj 1095 301 change -1;
#X obj 830 244 i;
#X obj 830 266 change -1;
#X obj 1114 236 s~ base-rhythm-phasor;
#X obj 984 75 r knob2;
#X obj 1115 202 phasor~;
#X obj 1237 10 r bpm;
#X floatatom 1114 74 5 0 0 0 - - -, f 5;
#X floatatom 1114 121 5 0 0 0 - - -, f 5;
#X obj 1114 96 / 240;
#X text 1015 56 tempo stuff;
#X msg 1213 144 0;
#X obj 1182 76 r reset-phase;
#X msg 1323 128 0, f 2;
#X obj 1114 140 f;
#X obj 1114 168 spigot;
#X msg 1181 135 1;
#X obj 1286 77 r stop-phasor;
#X obj 1291 104 t b b;
#X msg 1291 129 0, f 2;
#X obj 1182 104 t b b b;
#X msg 1693 219 \; led 7;
#X floatatom 1046 129 5 0 0 0 - - -, f 5;
#X obj 1114 47 bpm-clock-modifier;
#X obj 1039 181 s bpm-modified;
#X obj 1362 249 r bpm-modified;
#X obj 1362 309 / 960;
#X obj 1466 163 r knob3;
#X obj 1362 280 * 1;
#X obj 1404 282 * 120;
#X obj 1359 333 lop~ 5;
#X obj 1510 242 exp;
#X obj 1511 321 i;
#X obj 1511 271 * 99;
#X obj 1511 293 + 1;
#X obj 1506 212 * 11;
#X msg 1595 219 \; led 0;
#X msg 1690 259 \; led 2;
#X msg 1595 259 \; led 1;
#X obj 208 37 knob-state-per-button;
#X obj 180 184 delwrite~ signalL 16000;
#X obj 491 311 s delay-per-tap;
#X obj 491 258 loadbang;
#X msg 491 280 500;
#X obj 359 164 r~ inR;
#X obj 179 160 r~ inL;
#N canvas 3 50 1360 716 display 0;
#X obj 329 72 route;
#X msg 366 99 \$1;
#X obj 366 145 ==;
#X obj 292 33 t l l;
#X obj 292 5 r changed-parameter;
#N canvas 3 50 1360 716 tap-display 0;
#X obj 275 15 inlet;
#X obj 275 63 route 0 1 2 3 4 5 6 7;
#X msg 275 40 \$2 \$3;
#X msg 303 285 \; screenLine3 3: Volume \$1 \;;
#X obj 319 326 v2s 2 0;
#X obj 275 90 v2s 2 2;
#X obj 290 183 v2s 2 2;
#X msg 373 573 \; screenLine3 3: Distortion \$1 \;;
#X msg 319 351 \; screenLine4 4: Global Feedback \$1% \;;
#X msg 389 638 \; screenLine4 4: Local Feedback \$1% \;;
#X obj 392 613 v2s 2 0;
#X obj 346 385 v2freq;
#X obj 360 469 v2freq;
#X msg 360 501 \; screenLine2 2: LP \$1Hz \;;
#X obj 551 36 inlet;
#X obj 275 116 pack f f;
#X obj 346 410 pack f f;
#X msg 276 140 \; screenLine1 1: Input L/R \$1 |Tap\$2 \;;
#X msg 346 434 \; screenLine1 1: HP \$1Hz | Tap\$2 \;;
#X obj 290 205 pack f f;
#X obj 639 43 inlet, f 6;
#X msg 290 234 \; screenLine2 2: Output L/R \$1 |P\$2 \;;
#X connect 0 0 2 0;
#X connect 1 0 5 0;
#X connect 1 1 6 0;
#X connect 1 2 3 0;
#X connect 1 3 4 0;
#X connect 1 4 11 0;
#X connect 1 5 12 0;
#X connect 1 6 7 0;
#X connect 1 7 10 0;
#X connect 2 0 1 0;
#X connect 4 0 8 0;
#X connect 5 0 15 0;
#X connect 6 0 19 0;
#X connect 10 0 9 0;
#X connect 11 0 16 0;
#X connect 12 0 13 0;
#X connect 14 0 15 1;
#X connect 14 0 16 1;
#X connect 15 0 17 0;
#X connect 16 0 18 0;
#X connect 19 0 21 0;
#X connect 20 0 19 1;
#X restore 349 245 pd tap-display;
#X obj 411 31 r current-button-prio;
#X obj 409 121 r current-page-prio;
#X obj 292 175 spigot 0;
#X obj 366 123 div 4;
#N canvas 3 50 1360 716 direct-display 0;
#X obj 275 15 inlet;
#X obj 275 84 route 0 1 2 3 4 5 6 7;
#X msg 275 138 \; screenLine1 1: Input L/R \$1 \;;
#X msg 291 213 \; screenLine2 2: Output L/R \$1 \;;
#X msg 303 285 \; screenLine3 3: Volume \$1 \;;
#X obj 319 326 v2s 2 0;
#X obj 275 111 v2s 2 2;
#X obj 290 183 v2s 2 2;
#X msg 373 573 \; screenLine3 3: Distortion \$1 \;;
#X obj 392 613 v2s 2 0;
#X msg 389 637 \; screenLine4 4: \;;
#X msg 319 351 \; screenLine4 4: \;;
#X msg 275 51 \$1 \$2;
#X obj 343 395 v2freq;
#X obj 359 469 v2freq;
#X msg 345 426 \; screenLine1 1: High Pass \$1Hz \;;
#X msg 359 501 \; screenLine2 2: Low Pass \$1Hz \;;
#X connect 0 0 12 0;
#X connect 1 0 6 0;
#X connect 1 1 7 0;
#X connect 1 2 4 0;
#X connect 1 3 5 0;
#X connect 1 4 13 0;
#X connect 1 5 14 0;
#X connect 1 6 8 0;
#X connect 1 7 9 0;
#X connect 5 0 11 0;
#X connect 6 0 2 0;
#X connect 7 0 3 0;
#X connect 9 0 10 0;
#X connect 12 0 1 0;
#X connect 13 0 15 0;
#X connect 14 0 16 0;
#X restore 292 280 pd direct-display;
#X obj 292 211 route 0 24;
#X obj 435 162 r current-preset;
#X msg 326 126 0;
#X connect 0 0 1 0;
#X connect 0 1 13 0;
#X connect 1 0 9 0;
#X connect 2 0 8 1;
#X connect 3 0 8 0;
#X connect 3 1 0 0;
#X connect 4 0 3 0;
#X connect 6 0 0 1;
#X connect 6 0 5 1;
#X connect 7 0 2 1;
#X connect 8 0 11 0;
#X connect 9 0 2 0;
#X connect 11 0 10 0;
#X connect 11 2 5 0;
#X connect 12 0 5 2;
#X connect 13 0 8 1;
#X restore 226 265 pd display;
#X obj 18 75 delay-tap 1;
#X obj 359 187 delwrite~ signalR 16000;
#N canvas 3 49 1360 716 display-row5 0;
#X obj 22 22 r current-mode-name;
#X obj 127 60 r tap-on-off;
#X obj 177 207 list-set;
#X obj 222 105 list 0 0 0 0 0 0 0 0 0 0 0 0 0 0 0 0 0;
#X obj 127 108 unpack f f;
#X obj 127 160 swap;
#X obj 222 53 loadbang;
#X obj 320 50 bng 15 250 50 0 empty empty empty 17 7 0 10 -262144 -1
-1;
#N canvas 3 50 1360 716 thru 0;
#X obj 217 119 inlet;
#X obj 217 141 outlet;
#X connect 0 0 1 0;
#X restore 264 236 pd thru;
#X obj 22 169 symbol;
#X obj 201 326 pack s f f f f f f f f f f f f f f f f f;
#X obj 207 295 unpack f f f f f f f f f f f f f f f f f;
#X obj 115 221 bang;
#X msg 201 365 \; screenLine5 \$1 \$2\$3\$4\$5 \$6\$7\$8\$9 \$10\$11\$12\$13
\$14\$15\$16\$17\$18 \;, f 65;
#X connect 0 0 9 0;
#X connect 1 0 4 0;
#X connect 2 0 8 0;
#X connect 2 0 11 0;
#X connect 2 0 12 0;
#X connect 3 0 2 2;
#X connect 4 0 5 0;
#X connect 4 1 5 1;
#X connect 5 0 2 0;
#X connect 5 1 2 1;
#X connect 6 0 3 0;
#X connect 7 0 3 0;
#X connect 8 0 2 2;
#X connect 9 0 10 0;
#X connect 10 0 13 0;
#X connect 11 0 10 1;
#X connect 11 1 10 2;
#X connect 11 2 10 3;
#X connect 11 3 10 4;
#X connect 11 4 10 5;
#X connect 11 5 10 6;
#X connect 11 6 10 7;
#X connect 11 7 10 8;
#X connect 11 8 10 9;
#X connect 11 9 10 10;
#X connect 11 10 10 11;
#X connect 11 11 10 12;
#X connect 11 12 10 13;
#X connect 11 13 10 14;
#X connect 11 14 10 15;
#X connect 11 15 10 16;
#X connect 11 16 10 17;
#X connect 12 0 9 0;
#X restore 229 296 pd display-row5;
#N canvas 3 50 1360 716 preset-mode 0;
#X obj 263 4 r notes;
#X obj 356 3 r current-mode;
#X obj 263 46 spigot;
#X obj 263 68 unpack;
#X obj 263 90 spigot;
#X obj 356 25 == 2;
#X obj 93 210 < 10;
#X obj 55 210 >= 0;
#X obj 263 112 - 60;
#X obj 36 269 spigot;
#X obj 55 240 &&;
#X obj 263 257 spigot;
#X obj 282 228 &&;
#X obj 263 279 - 12;
#X obj 328 198 < 22;
#X obj 282 198 >= 12;
#X obj 36 347 s current-seq-preset;
#X obj 263 347 s current-preset;
#X obj 36 178 t f f f;
#X obj 263 168 t f f f;
#X connect 0 0 2 0;
#X connect 1 0 5 0;
#X connect 2 0 3 0;
#X connect 3 0 4 0;
#X connect 3 1 4 1;
#X connect 4 0 8 0;
#X connect 5 0 2 1;
#X connect 6 0 10 1;
#X connect 7 0 10 0;
#X connect 8 0 18 0;
#X connect 8 0 19 0;
#X connect 9 0 16 0;
#X connect 10 0 9 1;
#X connect 11 0 13 0;
#X connect 12 0 11 1;
#X connect 13 0 17 0;
#X connect 14 0 12 1;
#X connect 15 0 12 0;
#X connect 18 0 9 0;
#X connect 18 1 7 0;
#X connect 18 2 6 0;
#X connect 19 0 11 0;
#X connect 19 1 15 0;
#X connect 19 2 14 0;
#X restore 346 37 pd preset-mode;
#N canvas 3 49 1360 716 switch-mode 1;
#X obj 101 41 r aux;
#X obj 101 132 i 0;
#X obj 156 131 + 1;
#X obj 156 153 mod 3;
#X obj 44 254 s current-mode;
#X msg 101 86 bang;
#X obj 101 63 select 1;
#X obj 176 255 route 0 1 2;
#X obj 176 315 s current-mode-name;
#X msg 176 284 on;
#X msg 218 285 ed;
#X msg 262 284 pr;
#X connect 0 0 6 0;
#X connect 1 0 2 0;
#X connect 1 0 4 0;
#X connect 1 0 7 0;
#X connect 2 0 3 0;
#X connect 3 0 1 1;
#X connect 5 0 1 0;
#X connect 6 0 5 0;
#X connect 7 0 9 0;
#X connect 7 1 10 0;
#X connect 7 2 11 0;
#X connect 9 0 8 0;
#X connect 10 0 8 0;
#X connect 11 0 8 0;
#X restore 21 37 pd switch-mode;
#N canvas 3 50 1360 716 play-mode 0;
#N canvas 0 50 450 250 (subpatch) 0;
#X array taps-array 170 float 3;
#A 0 1 1 1 0 0 0 1 0 0 1 0 0 1 0 0 1 0 0 1 1 0 0 0 0 0 0 0 0 0 0 0
0 0 0 1 0 1 1 1 0 1 1 0 0 1 0 0 0 0 0 1 0 1 0 1 0 1 0 0 0 1 1 0 0 0
0 0 0 0 0 1 1 0 1 1 0 1 1 1 0 0 1 0 1 1 0 0 0 0 0 0 0 0 0 0 0 0 0 0
0 0 0 0 0 0 0 0 0 0 0 0 0 0 0 0 0 0 0 0 0 0 0 0 0 0 0 0 0 0 0 0 0 0
0 0 0 0 0 0 0 0 0 0 0 0 0 0 0 0 0 0 0 0 0 0 0 0 0 0 0 0 0 0 0 0 0 0
0 0 0;
#X coords 0 1 170 -1 200 140 1 0 0;
#X restore 31 25 graph;
#X obj 36 615 s tap-on-off;
#X obj 36 170 r notes;
#X obj 282 245 r current-seq-preset;
#X obj 36 302 button2tap;
#X obj 129 169 r current-mode;
#X obj 36 212 spigot;
#X obj 129 191 == 0;
#X obj 36 234 unpack;
#X obj 36 256 spigot;
#X obj 282 267 * 17;
#X text 118 608 tap-number (0-16) status (0/1);
#X obj 36 324 t f f;
#X obj 36 375 spigot;
#X obj 132 451 tabread taps-array;
#X obj 113 402 +;
#X obj 132 473 + 1;
#X obj 132 500 mod 2;
#X obj 132 528 tabwrite taps-array;
#X obj 113 426 t f f f;
#X obj 36 278 - 59;
#X obj 282 388 range 0 17;
#X obj 282 410 +;
#X obj 327 458 tabread taps-array;
#X obj 282 432 t f f;
#X obj 282 583 s tap-on-off;
#X obj 282 358 t f f;
#X obj 282 478 mod 17;
#X obj 36 517 mod 17;
#X obj 282 507 pack f f;
#X obj 36 569 pack f f;
#X obj 63 350 < 17;
#X obj 97 326 print tapnr;
#X connect 2 0 6 0;
#X connect 3 0 10 0;
#X connect 4 0 12 0;
#X connect 4 0 32 0;
#X connect 5 0 7 0;
#X connect 6 0 8 0;
#X connect 7 0 6 1;
#X connect 8 0 9 0;
#X connect 8 1 9 1;
#X connect 9 0 20 0;
#X connect 10 0 15 1;
#X connect 10 0 26 0;
#X connect 12 0 13 0;
#X connect 12 1 31 0;
#X connect 13 0 15 0;
#X connect 14 0 16 0;
#X connect 15 0 19 0;
#X connect 16 0 17 0;
#X connect 17 0 18 0;
#X connect 17 0 30 1;
#X connect 19 0 28 0;
#X connect 19 1 14 0;
#X connect 19 2 18 1;
#X connect 20 0 4 0;
#X connect 21 0 22 0;
#X connect 22 0 24 0;
#X connect 23 0 29 1;
#X connect 24 0 27 0;
#X connect 24 1 23 0;
#X connect 26 0 21 0;
#X connect 26 1 22 1;
#X connect 27 0 29 0;
#X connect 28 0 30 0;
#X connect 29 0 25 0;
#X connect 30 0 1 0;
#X connect 31 0 13 1;
#X restore 126 37 pd play-mode;
#X text 245 19 edit mode;
#X obj 100 74 delay-tap 2;
#X text 289 100 next: global params \, mutes in delay-tap;
#X msg 830 304 \; screenLine2 2: Tempo \$1 BPM MIDI \;;
#X msg 1098 337 \; screenLine2 2: Tempo \$1 BPM \;;
#X connect 0 1 6 0;
#X connect 1 0 0 0;
#X connect 2 0 3 0;
#X connect 3 0 1 0;
#X connect 4 0 5 0;
#X connect 5 0 0 1;
#X connect 6 0 7 0;
#X connect 8 0 9 0;
#X connect 11 0 4 0;
#X connect 11 0 30 0;
#X connect 12 0 10 0;
#X connect 13 0 30 1;
#X connect 14 0 16 0;
#X connect 15 0 21 0;
#X connect 16 0 15 0;
#X connect 18 0 12 1;
#X connect 19 0 27 0;
#X connect 20 0 22 1;
#X connect 21 0 22 0;
#X connect 22 0 12 0;
#X connect 23 0 22 1;
#X connect 24 0 25 0;
#X connect 25 0 26 0;
#X connect 25 1 20 0;
#X connect 26 0 12 0;
#X connect 27 0 21 0;
#X connect 27 1 23 0;
#X connect 27 2 18 0;
#X connect 29 0 31 0;
#X connect 30 0 29 0;
#X connect 30 0 14 0;
#X connect 30 1 8 0;
#X connect 32 0 35 0;
#X connect 32 0 36 1;
#X connect 33 0 37 0;
#X connect 34 0 40 0;
#X connect 34 0 42 0;
#X connect 35 0 33 0;
#X connect 36 0 33 0;
#X connect 38 0 35 1;
#X connect 38 0 36 0;
#X connect 40 0 41 0;
#X connect 41 0 39 0;
#X connect 42 0 38 0;
#X connect 49 0 50 0;
#X connect 50 0 48 0;
#X connect 51 0 55 0;
#X connect 52 0 47 0;
