#N canvas 3 49 1360 716 10;
#X obj 145 12 inlet;
#X obj 145 34 - 1;
#X obj 145 56 t b f;
#X obj 73 126 list split;
#X obj 101 159 list split 1;
#X obj 101 181 outlet;
#X obj 31 229 print s1;
#X obj 109 248 print s2;
#X obj 188 219 print s3;
#X msg 73 87 0 1 2 3 4 -1 5 6 7 8 -1 -1 -1 9 10 11 12 -1 13 14 15 16
-1 -1 25;
#X connect 0 0 1 0;
#X connect 1 0 2 0;
#X connect 2 0 9 0;
#X connect 2 1 3 1;
#X connect 3 0 6 0;
#X connect 3 1 4 0;
#X connect 3 1 7 0;
#X connect 3 2 8 0;
#X connect 4 0 5 0;
#X connect 9 0 3 0;
