#N canvas 147 50 934 711 10;
#X obj 302 45 inlet~;
#X obj 302 216 *~;
#X obj 321 163 pack 0 50;
#X obj 321 185 line~;
#X obj 405 97 * 9900;
#X obj 405 119 + 100;
#X obj 302 282 lop~;
#X obj 302 380 lop~;
#X obj 405 163 line;
#X obj 405 207 clip 100 10000;
#X obj 302 458 biquad~ 1.923 -0.92564 0.985317 -1.923 0.940323;
#X obj 569 219 * 480;
#X obj 569 241 + 20;
#X obj 321 141 + 2;
#X obj 460 46 inlet;
#X obj 405 44 inlet;
#X text 456 25 drive;
#X text 408 25 tone;
#X obj 405 141 pack 0 50;
#X obj 405 230 t f f;
#X obj 302 549 outlet~;
#X obj 302 491 clip~ -1 1;
#X obj 569 45 inlet;
#X text 580 25 tone low;
#X obj 568 296 line;
#X obj 569 263 pack 0 50;
#X obj 302 306 clip~ 0 0.2;
#X obj 303 341 -~ 0.1;
#X obj 321 119 * 20;
#X obj 302 430 hip~ 30;
#X connect 0 0 1 0;
#X connect 1 0 6 0;
#X connect 2 0 3 0;
#X connect 3 0 1 1;
#X connect 4 0 5 0;
#X connect 5 0 18 0;
#X connect 6 0 26 0;
#X connect 7 0 29 0;
#X connect 8 0 9 0;
#X connect 9 0 19 0;
#X connect 10 0 21 0;
#X connect 11 0 12 0;
#X connect 12 0 25 0;
#X connect 13 0 2 0;
#X connect 14 0 28 0;
#X connect 15 0 4 0;
#X connect 18 0 8 0;
#X connect 19 0 6 1;
#X connect 19 1 7 1;
#X connect 21 0 20 0;
#X connect 22 0 11 0;
#X connect 25 0 24 0;
#X connect 26 0 27 0;
#X connect 27 0 7 0;
#X connect 28 0 13 0;
#X connect 29 0 10 0;
#X coords 0 711 1 710 175 75 0;
