#N canvas 841 593 449 340 10;
#X obj 56 72 inlet;
#X obj 132 109 i;
#X obj 173 140 + 1;
#X obj 173 171 select 10;
#X obj 56 198 until;
#X obj 132 238 outlet;
#X obj 132 34 inlet;
#X obj 233 72 inlet;
#X obj 56 94 t b b;
#X obj 132 80 i;
#X text 130 11 from;
#X text 233 22 to (excluded);
#X connect 0 0 8 0;
#X connect 1 0 2 0;
#X connect 1 0 5 0;
#X connect 2 0 3 0;
#X connect 2 0 1 1;
#X connect 3 0 4 1;
#X connect 4 0 1 0;
#X connect 6 0 9 0;
#X connect 7 0 3 1;
#X connect 8 0 4 0;
#X connect 8 1 9 0;
#X connect 9 0 1 0;
