#N canvas 3 425 449 340 10;
#X obj 56 3 inlet;
#X text 204 48 to (excluding);
#X obj 132 109 i;
#X obj 173 140 + 1;
#X obj 173 171 select 10;
#X obj 56 198 until;
#X obj 132 238 outlet;
#X obj 132 69 f \$1;
#X obj 224 69 f \$2;
#X text 101 58 from;
#X obj 56 25 t b b;
#X connect 0 0 10 0;
#X connect 2 0 3 0;
#X connect 2 0 6 0;
#X connect 3 0 4 0;
#X connect 3 0 2 1;
#X connect 4 0 5 1;
#X connect 5 0 2 0;
#X connect 7 0 2 0;
#X connect 8 0 4 1;
#X connect 10 0 5 0;
#X connect 10 1 8 0;
#X connect 10 1 7 0;
