#N canvas 472 233 1386 760 10;
#X obj 153 105 bng 15 250 50 0 empty empty empty 17 7 0 10 -262144
-1 -1;
#X obj 235 144 r tone;
#X obj 187 103 r base-harmonic-freq;
#X obj 283 128 r decay;
#X obj 153 25 r~ base-rhythm-phasor;
#X obj 348 423 *~;
#X obj 153 67 phasebang \$1;
#X obj 139 224 voice \$1, f 21;
#X obj 416 399 line~;
#X obj 503 24 r rhythmicon-notes;
#X obj 503 61 unpack;
#X obj 508 145 f;
#X obj 464 257 sel 0;
#X obj 535 292 bang;
#X msg 486 343 1 10;
#X obj 586 318 loadbang;
#X obj 586 340 f \$1;
#X obj 586 362 % 2;
#X obj 338 598 throw~ x;
#X msg 403 444 set voice-out-\$1;
#X obj 283 162 / 1;
#X obj 375 81 loadbang;
#X obj 375 103 f \$1;
#X obj 375 125 / 6;
#X obj 694 356 loadbang;
#X obj 694 379 f \$1;
#X text 736 593 attenuate higher partials;
#X obj 370 551 /~;
#X obj 697 407 sig~;
#X obj 750 410 r~ rolloff;
#X obj 719 449 *~;
#X obj 622 510 +~ 1;
#X obj 283 194 expr if($f1 < 20 \, 20 \, $f1);
#X obj 158 502 makenote 100 50;
#X obj 158 540 noteout 1;
#X obj 38 214 f \$2;
#X obj 158 475 spigot 0;
#X msg 211 417 0;
#X msg 247 416 1;
#X floatatom 211 448 5 0 0 0 - - -, f 5;
#X obj 508 175 &&;
#X obj 507 201 - 1;
#X obj 485 234 * -100;
#X obj 465 100 sel \$2;
#X obj 153 335 r stopedAll;
#X obj 116 172 spigot 1;
#X obj 151 389 bng 15 250 50 0 empty empty empty 17 7 0 10 -262144
-1 -1;
#X connect 0 0 35 0;
#X connect 0 0 45 0;
#X connect 1 0 7 2;
#X connect 2 0 7 1;
#X connect 3 0 20 0;
#X connect 4 0 6 0;
#X connect 5 0 27 0;
#X connect 6 0 0 0;
#X connect 7 0 5 0;
#X connect 8 0 5 1;
#X connect 9 0 10 0;
#X connect 10 0 43 0;
#X connect 10 1 11 1;
#X connect 11 0 40 0;
#X connect 12 0 37 0;
#X connect 12 1 13 0;
#X connect 12 1 38 0;
#X connect 13 0 14 0;
#X connect 14 0 8 0;
#X connect 15 0 16 0;
#X connect 16 0 17 0;
#X connect 17 0 19 0;
#X connect 19 0 18 0;
#X connect 20 0 32 0;
#X connect 21 0 22 0;
#X connect 22 0 23 0;
#X connect 23 0 20 1;
#X connect 24 0 25 0;
#X connect 25 0 28 0;
#X connect 27 0 18 0;
#X connect 28 0 30 0;
#X connect 29 0 30 1;
#X connect 30 0 31 0;
#X connect 31 0 27 1;
#X connect 32 0 7 3;
#X connect 33 0 34 0;
#X connect 33 1 34 1;
#X connect 35 0 36 0;
#X connect 36 0 33 0;
#X connect 37 0 39 0;
#X connect 38 0 39 0;
#X connect 39 0 40 1;
#X connect 39 0 36 1;
#X connect 39 0 45 1;
#X connect 40 0 41 0;
#X connect 41 0 42 0;
#X connect 42 0 12 0;
#X connect 43 0 11 0;
#X connect 44 0 37 0;
#X connect 44 0 46 0;
#X connect 45 0 7 0;
