#N canvas 584 406 727 596 10;
#X obj 101 41 inlet;
#X obj 193 41 inlet;
#X obj 298 41 inlet;
#X obj 399 41 inlet;
#X text 94 14 preset;
#X text 187 14 button;
#X text 296 14 page;
#X obj -117 17 r num-pages-per-button;
#X obj -117 117 * 100;
#X obj -34 171 *;
#X obj 193 64 * 4;
#X obj 88 244 +;
#X obj 298 63 * 100;
#X obj 206 319 +;
#X obj 283 384 +;
#X obj 283 406 outlet;
#X text 398 14 index (0 \, 1 \, 2 \, 3);
#X obj 399 95 t b f;
#X obj 298 85 t b f;
#X obj 193 86 t b f;
#X obj 101 63 t b f;
#X obj 45 42 inlet;
#X text 51 15 bang;
#X connect 0 0 20 0;
#X connect 1 0 10 0;
#X connect 2 0 12 0;
#X connect 3 0 17 0;
#X connect 7 0 8 0;
#X connect 8 0 9 0;
#X connect 9 0 11 0;
#X connect 10 0 19 0;
#X connect 11 0 13 0;
#X connect 12 0 18 0;
#X connect 13 0 14 0;
#X connect 14 0 15 0;
#X connect 17 1 14 1;
#X connect 18 1 13 1;
#X connect 19 1 11 1;
#X connect 20 1 9 1;
#X connect 21 0 8 0;
