#N canvas 3 49 1360 716 10;
#X obj 273 209 outlet;
#X obj 273 61 inlet;
#X obj 273 182 div;
#X obj 273 134 * 19980;
#X obj 273 156 + 20;
#X obj 274 89 pow 2;
#X connect 1 0 5 0;
#X connect 2 0 0 0;
#X connect 3 0 4 0;
#X connect 4 0 2 0;
#X connect 5 0 3 0;
