#N canvas 623 677 450 300 10;
#X obj 69 54 inlet;
#X obj 123 96 f \$1;
#X obj 123 53 loadbang;
#X obj 69 236 outlet;
#X obj 69 143 *;
#X obj 69 181 i;
#X connect 0 0 4 0;
#X connect 1 0 4 1;
#X connect 2 0 1 0;
#X connect 4 0 5 0;
#X connect 5 0 3 0;
